HIERARCHY
ROOT Hips
{
	OFFSET -0.001795 -0.223333 0.028219
	CHANNELS 6 Xposition Yposition Zposition Zrotation Yrotation Xrotation 
	JOINT LeftUpLeg
	{
		OFFSET 0.069520 -0.091406 -0.006815
		CHANNELS 3 Zrotation Yrotation Xrotation
		JOINT LeftLeg
		{
			OFFSET 0.034277 -0.375199 -0.004496
			CHANNELS 3 Zrotation Yrotation Xrotation
			JOINT LeftFoot
			{
				OFFSET -0.013596 -0.397961 -0.043693
				CHANNELS 3 Zrotation Yrotation Xrotation
				JOINT LeftToe
				{
					OFFSET 0.026358 -0.055791 0.119288
					CHANNELS 3 Zrotation Yrotation Xrotation
					End Site
					{
						OFFSET 0.000000 0.000000 0.000000
					}
				}
			}
		}
	}
	JOINT RightUpLeg
	{
		OFFSET -0.067670 -0.090522 -0.004320
		CHANNELS 3 Zrotation Yrotation Xrotation
		JOINT RightLeg
		{
			OFFSET -0.038290 -0.382569 -0.008850
			CHANNELS 3 Zrotation Yrotation Xrotation
			JOINT RightFoot
			{
				OFFSET 0.015774 -0.398415 -0.042312
				CHANNELS 3 Zrotation Yrotation Xrotation
				JOINT RightToe
				{
					OFFSET -0.025372 -0.048144 0.123348
					CHANNELS 3 Zrotation Yrotation Xrotation
					End Site
					{
						OFFSET 0.000000 0.000000 0.000000
					}
				}
			}
		}
	}
	JOINT Spine
	{
		OFFSET -0.002533 0.108963 -0.026696
		CHANNELS 3 Zrotation Yrotation Xrotation
		JOINT Spine1
		{
			OFFSET 0.005487 0.135180 0.001092
			CHANNELS 3 Zrotation Yrotation Xrotation
			JOINT Spine2
			{
				OFFSET 0.001457 0.052922 0.025425
				CHANNELS 3 Zrotation Yrotation Xrotation
				JOINT Neck
				{
					OFFSET -0.002778 0.213870 -0.042857
					CHANNELS 3 Zrotation Yrotation Xrotation
					JOINT Head
					{
						OFFSET 0.005152 0.064970 0.051349
						CHANNELS 3 Zrotation Yrotation Xrotation
						End Site
						{
							OFFSET 0.000000 0.000000 0.000000
						}
					}
				}
				JOINT LeftShoulder
				{
					OFFSET 0.078845 0.121749 -0.034090
					CHANNELS 3 Zrotation Yrotation Xrotation
					JOINT LeftArm
					{
						OFFSET 0.090977 0.030469 -0.008868
						CHANNELS 3 Zrotation Yrotation Xrotation
						JOINT LeftForeArm
						{
							OFFSET 0.259612 -0.012772 -0.027456
							CHANNELS 3 Zrotation Yrotation Xrotation
							JOINT LeftHand
							{
								OFFSET 0.249234 0.008986 -0.001171
								CHANNELS 3 Zrotation Yrotation Xrotation
								End Site
								{
									OFFSET 0.000000 0.000000 0.000000
								}
							}
						}
					}
				}
				JOINT RightShoulder
				{
					OFFSET -0.081759 0.118833 -0.038615
					CHANNELS 3 Zrotation Yrotation Xrotation
					JOINT RightArm
					{
						OFFSET -0.096012 0.032551 -0.009143
						CHANNELS 3 Zrotation Yrotation Xrotation
						JOINT RightForeArm
						{
							OFFSET -0.253742 -0.013329 -0.021401
							CHANNELS 3 Zrotation Yrotation Xrotation
							JOINT RightHand
							{
								OFFSET -0.255298 0.007772 -0.005559
								CHANNELS 3 Zrotation Yrotation Xrotation
								End Site
								{
									OFFSET 0.000000 0.000000 0.000000
								}
							}
						}
					}
				}
			}
		}
	}
}
MOTION
Frames: 15
Frame Time: 0.050000
0.000000 0.945418 0.000000 -1.271764 8.201209 1.647224 6.337944 -0.114638 4.612202 -5.300898 0.364819 -6.424213 2.783632 7.880089 5.583793 0.000000 0.000000 0.000000 -1.907939 -0.162144 2.017046 2.764890 -0.327246 1.737242 -1.187747 -4.041985 3.209091 0.000000 0.000000 0.000000 -2.206059 -0.054262 3.414714 4.545151 -0.505613 -21.237510 -2.360495 -3.809187 28.432803 0.692729 1.742480 -32.261723 0.000000 0.000000 0.000000 -37.444300 1.159557 -4.593846 -41.477490 -1.399734 -6.103995 -11.419542 -32.619496 4.932502 0.000000 0.000000 0.000000 29.254711 1.923316 0.146741 47.069316 1.936617 -6.294612 2.874343 33.213065 2.539442 0.000000 0.000000 0.000000 
0.000895 0.944610 0.001844 -1.105335 8.339235 2.574773 6.381815 -0.140633 4.258649 -5.560316 0.340376 -7.568486 3.048951 8.577938 6.257883 0.000000 0.000000 0.000000 -2.948574 -0.034284 0.870562 3.658185 -0.455378 1.773627 -1.166888 -3.795586 2.552409 0.000000 0.000000 0.000000 -2.563269 -0.000773 1.834499 4.643634 -0.563010 -20.575648 -2.723414 -3.840441 29.086730 0.579553 1.883877 -33.647433 0.000000 0.000000 0.000000 -37.367607 2.484529 -5.622930 -41.630162 -1.158796 -6.233235 -12.869467 -32.153577 5.300105 0.000000 0.000000 0.000000 29.031786 1.492991 -0.061226 47.824639 2.113493 -6.388880 2.342314 33.551816 2.470472 0.000000 0.000000 0.000000 
0.002898 0.943913 0.003894 -0.761470 8.728327 2.801731 6.297451 -0.146502 4.097932 -6.324653 0.346658 -7.502562 3.106015 8.770822 6.510145 0.000000 0.000000 0.000000 -3.210606 -0.071864 1.376928 3.426180 -0.427373 1.010699 -1.237442 -3.946948 2.511991 0.000000 0.000000 0.000000 -2.290970 0.000707 1.478084 3.913315 -0.365580 -20.266337 -2.716039 -3.897872 29.836714 0.068516 2.162113 -33.888653 0.000000 0.000000 0.000000 -36.157442 2.207738 -5.256113 -41.891484 -1.312775 -6.280264 -11.839930 -31.477560 4.876686 0.000000 0.000000 0.000000 29.086926 2.231730 0.529597 48.024524 2.690039 -6.278462 0.740604 31.412509 1.857138 0.000000 0.000000 0.000000 
0.006160 0.943190 0.006518 -0.723101 8.994238 2.935031 5.908378 -0.118858 4.239892 -5.954008 0.345736 -7.125169 3.528451 9.201208 5.567850 0.000000 0.000000 0.000000 -3.552961 -0.057907 1.263366 3.892204 -0.494978 1.036116 -1.141896 -3.657248 2.335529 0.000000 0.000000 0.000000 -2.326535 0.001481 1.509721 4.198616 -0.412007 -20.819126 -2.988474 -3.726164 30.631691 0.378453 2.124664 -35.038609 0.000000 0.000000 0.000000 -37.227873 2.765737 -6.058356 -40.583876 -0.748315 -6.222215 -11.862960 -32.151259 4.969136 0.000000 0.000000 0.000000 29.296235 2.353865 0.838995 47.769219 2.728848 -6.379136 0.331532 31.343484 1.794831 0.000000 0.000000 0.000000 
0.011086 0.942472 0.009966 -0.804185 9.194363 2.693140 5.507054 -0.085136 4.306286 -5.832217 0.347778 -6.837407 3.432031 8.843932 4.988854 0.000000 0.000000 0.000000 -3.704692 -0.111035 1.929422 3.624307 -0.460191 0.784147 -1.105793 -3.427211 1.838422 0.000000 0.000000 0.000000 -2.150357 -0.017973 2.094637 4.319207 -0.468172 -20.340552 -3.016850 -3.631187 29.996692 0.575431 2.055910 -34.767649 0.000000 0.000000 0.000000 -36.740097 2.559773 -5.937113 -40.188650 -0.253005 -6.238806 -12.115874 -31.266096 4.857360 0.000000 0.000000 0.000000 29.431801 2.574531 1.036335 46.906441 2.220516 -6.416823 0.590657 30.849487 1.794276 0.000000 0.000000 0.000000 
0.017922 0.941880 0.014578 -1.008776 9.652878 2.710773 5.089726 -0.051641 4.569970 -5.494738 0.336574 -6.670319 3.280503 8.400093 4.472064 0.000000 0.000000 0.000000 -4.128864 -0.131677 2.260182 3.853007 -0.496106 0.712295 -1.337802 -4.020976 1.936105 0.000000 0.000000 0.000000 -2.140136 -0.023750 2.305764 4.064396 -0.365760 -20.764779 -2.770427 -3.950756 30.559618 0.277806 2.223415 -35.400606 0.000000 0.000000 0.000000 -36.291900 2.728938 -5.957853 -40.523638 -0.169336 -6.368627 -11.601624 -30.537315 4.603469 0.000000 0.000000 0.000000 29.576840 2.502282 1.025779 46.670139 1.798224 -6.601948 0.809326 31.030373 1.871983 0.000000 0.000000 0.000000 
0.026356 0.941594 0.020662 -1.023561 9.499454 2.783833 4.451966 0.006924 4.642391 -5.455826 0.349237 -6.206967 3.472905 8.595187 4.063722 0.000000 0.000000 0.000000 -4.467054 -0.136476 2.465416 3.692639 -0.472012 0.938347 -1.088538 -3.383988 1.855506 0.000000 0.000000 0.000000 -2.028572 -0.033387 2.567027 4.119755 -0.389011 -20.671212 -2.884204 -4.304648 30.585802 0.086792 2.244556 -35.456850 0.000000 0.000000 0.000000 -35.966084 2.687129 -5.610361 -41.004758 -0.217129 -6.515859 -10.943788 -30.017248 4.381600 0.000000 0.000000 0.000000 29.011153 2.945194 1.140388 46.702493 0.939843 -6.836507 1.876837 32.549848 2.241717 0.000000 0.000000 0.000000 
0.036093 0.940906 0.028478 -0.959867 9.634007 3.013523 3.585677 0.077899 4.672203 -4.965653 0.348390 -5.452599 3.488998 8.360412 3.334086 0.000000 0.000000 0.000000 -4.909744 -0.124498 2.456642 3.567244 -0.454701 1.708780 -1.228863 -3.603725 1.391059 0.000000 0.000000 0.000000 -2.099310 -0.038568 2.907674 4.058593 -0.356592 -20.937760 -2.802427 -4.451994 30.653690 -0.226064 2.385969 -35.511396 0.000000 0.000000 0.000000 -34.919309 2.576329 -5.302800 -41.776900 0.666024 -6.944217 -11.484147 -30.450216 4.608711 0.000000 0.000000 0.000000 28.366374 2.857492 1.070876 46.650818 -0.437557 -7.292637 4.702733 35.719484 3.375372 0.000000 0.000000 0.000000 
0.046792 0.940178 0.038248 -0.852401 9.662486 3.257270 2.380272 0.198903 5.099525 -4.472933 0.337632 -5.021109 3.479647 7.902715 2.179352 0.000000 0.000000 0.000000 -5.075016 -0.105717 2.275515 3.104134 -0.383946 2.718248 -1.348329 -3.727061 0.734861 0.000000 0.000000 0.000000 -2.264753 -0.039388 3.255295 4.131621 -0.377584 -20.883623 -2.831616 -4.718818 30.385538 -0.305501 2.366095 -35.115726 0.000000 0.000000 0.000000 -34.178506 2.860034 -5.262962 -42.592268 0.668712 -7.106967 -12.394850 -30.737130 4.938000 0.000000 0.000000 0.000000 27.055564 2.659933 0.861138 47.526940 -1.830735 -7.843482 7.330695 38.718741 4.619252 0.000000 0.000000 0.000000 
0.058199 0.938156 0.049882 -0.618947 9.788287 3.605373 1.251175 0.309125 5.351833 -3.850307 0.320759 -3.826907 3.601908 7.537221 0.682762 0.000000 0.000000 0.000000 -5.659259 -0.059414 1.776916 2.817085 -0.335841 4.815191 -1.621035 -4.071518 -0.614465 0.000000 0.000000 0.000000 -2.244666 -0.045183 3.537685 3.911750 -0.288988 -21.409197 -3.028443 -4.836451 30.712763 -0.679406 2.541940 -35.347254 0.000000 0.000000 0.000000 -32.993632 2.741650 -4.934145 -43.264517 1.128351 -7.419118 -13.352252 -31.858163 5.424693 0.000000 0.000000 0.000000 26.260908 2.542756 0.791697 47.513240 -3.436788 -8.414235 12.432267 42.945348 7.211801 0.000000 0.000000 0.000000 
0.070333 0.934666 0.063321 -0.392566 10.053025 4.085426 0.471024 0.397953 5.703984 -3.560493 0.305942 -2.863122 3.419606 6.587445 -0.682755 0.000000 0.000000 0.000000 -5.611501 0.010230 0.661407 1.818908 -0.152469 7.461340 -2.123795 -5.066528 -2.042486 0.000000 0.000000 0.000000 -2.228518 -0.045293 3.627436 3.680753 -0.229410 -21.193863 -3.302586 -5.171952 30.591206 -1.292679 2.789805 -34.980163 0.000000 0.000000 0.000000 -32.421553 2.982223 -4.941927 -43.269391 1.065065 -7.408041 -15.207640 -34.271285 6.471061 0.000000 0.000000 0.000000 25.167603 2.520170 0.727369 48.467908 -4.996894 -9.082943 18.066764 47.519669 10.655449 0.000000 0.000000 0.000000 
0.083219 0.930626 0.078736 0.142348 11.327771 4.767027 -0.297304 0.462781 5.768818 -3.323148 0.274361 -0.719222 2.873342 4.485966 -2.590910 0.000000 0.000000 0.000000 -5.585871 0.137453 -1.729332 1.146882 -0.053973 13.749471 -3.222644 -7.910006 -3.372472 0.000000 0.000000 0.000000 -2.352074 -0.049574 4.123760 3.462439 -0.117869 -21.828501 -3.452118 -6.303507 31.119074 -1.150513 2.700273 -36.164838 0.000000 0.000000 0.000000 -32.127976 3.082858 -4.828138 -43.194158 1.041571 -7.458855 -19.087154 -38.915243 8.890462 0.000000 0.000000 0.000000 24.636735 1.972396 0.311057 47.911709 -6.622883 -9.568590 26.480781 53.022325 16.455184 0.000000 0.000000 0.000000 
0.096236 0.925060 0.097669 0.644345 11.922730 4.832442 -1.357660 0.623392 6.641140 -3.202739 0.242704 1.279824 2.981962 3.862383 -4.086177 0.000000 0.000000 0.000000 -4.923381 0.309382 -4.804327 -0.491783 0.289402 21.231625 -3.999757 -9.967889 -4.461008 0.000000 0.000000 0.000000 -2.663567 -0.062403 5.220747 4.118620 -0.269240 -22.028127 -4.208936 -6.141092 31.546918 -0.554912 2.519777 -36.586901 0.000000 0.000000 0.000000 -32.353347 3.935322 -5.712815 -41.562188 0.970510 -7.101099 -26.915668 -46.095121 14.129117 0.000000 0.000000 0.000000 23.606301 1.620043 0.320511 48.560567 -7.673768 -10.134440 38.192843 58.118724 25.593023 0.000000 0.000000 0.000000 
0.108520 0.919720 0.121472 0.556631 13.473878 4.489548 -1.412713 0.666573 7.393753 -3.334503 0.204277 3.837594 2.833155 1.915311 -6.538658 0.000000 0.000000 0.000000 -4.019222 0.506492 -8.146785 -1.298526 0.147132 31.755712 -4.310035 -10.864050 -3.412853 0.000000 0.000000 0.000000 -2.439126 -0.122989 6.458097 4.409596 -0.331812 -21.817026 -4.049658 -6.859014 31.649311 -0.870618 2.691713 -36.567168 0.000000 0.000000 0.000000 -32.676122 2.519102 -4.873603 -40.397952 0.199038 -6.635117 -37.015519 -53.784380 22.278153 0.000000 0.000000 0.000000 22.002692 -0.163658 -0.638064 48.263003 -9.683845 -10.763297 56.661587 60.677124 39.463833 0.000000 0.000000 0.000000 
0.119459 0.913210 0.150999 0.426362 14.546530 4.351861 -1.305775 0.760567 9.257222 -2.576018 0.072124 5.372322 2.711640 0.501158 -8.011257 0.000000 0.000000 0.000000 -4.393238 0.657160 -13.831234 -0.220442 -1.185126 42.160942 -4.884090 -12.264171 -2.183560 0.000000 0.000000 0.000000 -2.546451 -0.153864 7.389551 5.305586 -0.531940 -22.126428 -5.510524 -9.620981 32.161884 0.402625 1.743971 -36.532771 0.000000 0.000000 0.000000 -33.769532 4.444454 -5.401265 -38.784735 -1.066734 -6.333097 -53.235392 -61.762717 37.714593 0.000000 0.000000 0.000000 21.335038 -0.170367 -1.246841 48.090849 -12.726725 -11.716884 75.489210 62.228144 54.323059 0.000000 0.000000 0.000000 
